<?xml version="1.0" encoding="UTF-8"?>
<!DOCTYPE svg PUBLIC "-//W3C//DTD SVG 1.1//EN" "http://www.w3.org/Graphics/SVG/1.1/DTD/svg11.dtd">
<svg xmlns="http://www.w3.org/2000/svg" version="1.1" width="171px" height="169px" style="shape-rendering:geometricPrecision; text-rendering:geometricPrecision; image-rendering:optimizeQuality; fill-rule:evenodd; clip-rule:evenodd" xmlns:xlink="http://www.w3.org/1999/xlink">
<g><path style="opacity:0.967" fill="#fdfdfd" d="M 129.5,8.5 C 131.527,8.33788 133.527,8.50454 135.5,9C 143.333,16.8333 151.167,24.6667 159,32.5C 159.667,34.8333 159.667,37.1667 159,39.5C 137.833,60.6667 116.667,81.8333 95.5,103C 85.3474,105.736 75.0141,107.069 64.5,107C 61.9816,105.13 60.6482,102.63 60.5,99.5C 61.8622,90.4619 63.3622,81.4619 65,72.5C 86.395,50.9379 107.895,29.6045 129.5,8.5 Z M 131.5,26.5 C 135.57,29.0604 139.236,32.2271 142.5,36C 124.5,54 106.5,72 88.5,90C 84.5598,91.0153 80.5598,91.5153 76.5,91.5C 76.9518,87.8371 77.4518,84.1704 78,80.5C 96.0351,62.6319 113.868,44.6319 131.5,26.5 Z"/></g>
<g><path style="opacity:0.955" fill="#fefefe" d="M 135.5,76.5 C 136.209,77.404 137.209,77.7373 138.5,77.5C 138.17,94.6749 138.503,111.675 139.5,128.5C 138.028,140.136 131.695,147.636 120.5,151C 91.8333,151.667 63.1667,151.667 34.5,151C 24.9334,148.368 19.1,142.201 17,132.5C 16.3333,104.167 16.3333,75.8333 17,47.5C 20.0477,37.1181 26.881,30.9515 37.5,29C 55.4969,28.5001 73.4969,28.3334 91.5,28.5C 92.1368,33.7118 92.1368,38.5451 91.5,43C 73.1667,43.3333 54.8333,43.6667 36.5,44C 33.3374,45.4798 31.504,47.9798 31,51.5C 30.8333,64.3333 30.6667,77.1667 30.5,90C 30.368,104.219 30.868,118.385 32,132.5C 33.6374,134.81 35.804,136.31 38.5,137C 65.8953,137.974 93.2287,137.641 120.5,136C 122.894,134.048 124.394,131.548 125,128.5C 125.5,111.17 125.667,93.8365 125.5,76.5C 128.833,76.5 132.167,76.5 135.5,76.5 Z"/></g>
<g><path style="opacity:0.622" fill="#eaeaea" d="M 135.5,76.5 C 136.833,76.5 138.167,76.5 139.5,76.5C 139.5,93.8333 139.5,111.167 139.5,128.5C 138.503,111.675 138.17,94.6749 138.5,77.5C 137.209,77.7373 136.209,77.404 135.5,76.5 Z"/></g>
</svg>
