<?xml version="1.0" encoding="UTF-8"?>
<svg version="1.1" viewBox="0 0 1600 1006" width="1280" height="1280" xmlns="http://www.w3.org/2000/svg">
<path transform="translate(705,83)" d="m0 0h9l47 24 29 15 41 21 20 10 19 10 35 18 19 10 50 25 19 10 15 8 40 20 19 10 35 18 26 13 19 10 41 21 19 10 27 14 5 4 1 5-5 24-1 12-8 4-24 7-156 43-109 30-2 1-5 35v10l9 11 6 7 8 16 8 17 2 7 1 11v21l-2 18-5 29 10-6 17-12 18-14 17-12 16-12 14-10 12-9 18-13 17-13 14-10 11-9 4-10 11-12 3-3-1-5-4-10-1-8 2-8 6-10 10-10 17-10 20-8 23-6 20-3 33-2 18-12 19-14 13-10 10-7 13-10 14-10 18-13 21-16 24-16 13-6 17-4h15l18 4 12 5 14 8 10 8 12 11 10 13 10 19 6 21 1 15-2 13-5 13-7 11-11 12-14 12-13 11-9 7-14 12-14 11-14 12-11 9-14 12-13 11-14 11-13 11-11 9-14 12-6 5-3 10-6 9-7 9-10 10-14 11-8 8-11 9-13 10-16 8-7 2-10 1-11 9-13 11-10 8-14 12-22 18-14 12-14 11-15 13-11 9-17 14-13 11-10 8-14 12-14 11-10 9-9 7-14 12-11 9-13 11-10 8-13 10-14 9-8 4-17 3-16-2h-10l-5 4-3 1h-8l-9-5-11-9-12-11-9-9-7-8-11-15-12-20-7-16-6-19-1-10-45 11-27 5-45 6-20 2-30 1h-42l-71-7-41-8-40-9-36-12-31-11-42-21-16-9-19-14-13-10-14-12-10-11-11-14-7-9-9-20-7-18-1-4v-50l1-31 3-40 3-10 7-17 7-11 11-12 7-8 12-12 1-14v-24l-5-5-14-11-16-13-25-20-13-10-16-13-10-7-4 5-8 14-9 21-3 15-3 13-1 18v59l10 3 9 6 7 9 4 11 1 10-3 12-5 9 8 14 9 19 7 21 6 26 5 26 3 21 2 11 2 26 4 13v19l-7 11-10 9-17 8-13 4-28 5h-17l-17-3-10-1-21-9-11-8-7-8-4-11 1-9 6-27 7-43 8-37 7-25 10-25 9-17 6-10-2-5-4-8-2-7 1-9 6-14 9-10 11-7v-51l3-29 2-14 6-22 8-19 6-11 7-9-2-4-12-11-17-13-32-26-17-13-17-14-13-10-16-13-7-5-1-2v-39l2-3 152-25 111-18 167-27 174-28 50-8z" fill="#5748CC"/>
<path transform="translate(705,83)" d="m0 0h9l47 24 29 15 41 21 20 10 19 10 35 18 19 10 50 25 19 10 15 8 40 20 19 10 35 18 26 13 19 10 41 21 19 10 27 14 5 4 1 4-7-5-1 2-16 3-5 2-16 3-10 3-14 3-22 8-56 15-20 5-15 4-20 5-26 6-17 5-20 5-9 3-31 8-13 4-42 12-13 4-60 16-44 11-150 40-50 13-41 11-18 4-4 1-17-13-20-15-13-10-9-7-13-10-15-12-47-36-15-12-19-14-3-2v-2l-4-2-14-11-9-7-15-12-11-8-11-9-10-7-14-10-20-14 1-4-6 1-8 4h-3v2l-10 6-7 6-2 3-4 5-8 14-9 21-3 15-3 13-1 18v59l10 3 9 6 7 9 4 11 1 10-3 12-5 9 8 14 9 19 7 21 6 26 5 26 3 21 2 11 2 26 4 13v19l-7 11-10 9-17 8-13 4-28 5h-17l-17-3-10-1-21-9-11-8-7-8-4-11 1-9 6-27 7-43 8-37 7-25 10-25 9-17 6-10-2-5-4-8-2-7 1-9 6-14 9-10 11-7v-51l3-29 2-14 6-22 8-19 6-11 7-9-2-4-12-11-17-13-32-26-17-13-17-14-13-10-16-13-7-5-1-2v-39l2-3 152-25 111-18 167-27 174-28 50-8z" fill="#7A6AFC"/>
<path transform="translate(1444,319)" d="m0 0h15l18 4 12 5 14 8 10 8 12 11 10 13 10 19 6 21 1 15-2 13-5 13-7 11-11 12-14 12-13 11-9 7-14 12-14 11-14 12-11 9-14 12-13 11-14 11-13 11-11 9-14 12-6 5-3 10-6 9-7 9-10 10-14 11-8 8-11 9-13 10-16 8-7 2-10 1-11 9-13 11-10 8-14 12-22 18-14 12-14 11-15 13-11 9-17 14-13 11-10 8-14 12-14 11-10 9-9 7-14 12-11 9-13 11-10 8-13 10-14 9-8 4-17 3-16-2h-10l-5 4-3 1h-8l-9-5-11-9-12-11-9-9-7-8-11-15-12-20-7-16-6-19-1-10h-2l-1-12v-11l4-16 8-16 9-10 7-7 8-7 13-10 17-12 14-10 19-14 17-12 16-13 16-11h2v-3l10-6 17-12 18-14 17-12 16-12 14-10 12-9 18-13 17-13 14-10 11-9 4-10 11-12 3-3-1-5-4-10-1-8 2-8 6-10 10-10 17-10 20-8 23-6 20-3 33-2 18-12 19-14 13-10 10-7 13-10 14-10 18-13 21-16 24-16 13-6z" fill="#D3659E"/>
<path transform="translate(1444,319)" d="m0 0h15l18 4 12 5 14 8 10 8 12 11 10 13 10 19 6 21 1 15-2 13-5 13-7 11-11 12-14 12-13 11-9 7-14 12-14 11-14 12-11 9-14 12-13 11-14 11-13 11-11 9-14 12-6 5-3 10-6 9-7 9-10 10-14 11-8 8-7 6h-2l2-5 3-23v-24l-3-14-6-17-8-17-10-16-11-13-8-8v-2l-4-1-2-1h-33l-27-2-19-5-19-7-6 1-10 5-9 6h-2l1-5 11-12 3-3-1-5-4-10-1-8 2-8 6-10 10-10 17-10 20-8 23-6 20-3 33-2 18-12 19-14 13-10 10-7 13-10 14-10 18-13 21-16 24-16 13-6z" fill="#FA7FBA"/>
<path transform="translate(911,481)" d="m0 0h21l2 4-4 30v10l9 11 6 7 8 16 8 17 2 7 1 11v21l-2 18-4 24-1 8-11 7-14 11-13 10-17 12-19 14-14 10-17 12-11 9-15 14-6 7-8 16-4 16v23l-30 8-28 6-49 7-41 2h-28l-12-2-9-3-4-2 1-3 20-8 10-8 12-8 7-7 11-9 15-11 17-10 17-9 15-7 12-6 20-7 14-7 18-5 8-3 23-8 6-4 3-3h2l2-4 4-4 6-9 7-10 1-5-20-2-5-2-1-4h-2l1-10v-6l1-1v-6l5-6h2v-7l3-4-1-6-1-4-4-1 1-6 1-4-5-3-4-7v-9l-6-1-3-4 5-5-1-2h2l1-6 1-2-14 4-14 5-8 2-18 1-8 2-2 5-3 1-2 7-3 1v6l-2 4-1 7-7 4h-2v2l-8 5-11 4-14 6-13 4-11-1-11-4-1-2-7-3-19-2-37-2-28-4-17-5-14-6-12-7-15-7-6-5 1-5 6-6 10-4 20-5 14-4 13-2 9-3 14-3 37-10 25-7 15-4 40-11 42-11 72-20 16-5 10-4 22-7 14-6z" fill="#4638A5"/>
<path transform="translate(621,236)" d="m0 0h18l18 2 17 5 5 4 2 4-1 9-5 6-6 3-9 2h-37l-5-1v-2h-5v2l-21 3-40 4-27 2-15 2-30 3-24 2-42 5-51 9-10 2h-10v2l-25 5-9 1-6 2-18 3-14 4-36 8-17 5-10 5h-3v2l-10 6-7 6-2 3-4 5-8 14-9 21-3 15-3 13-1 18v59l10 3 9 6 7 9 4 11 1 10-3 12-5 9 8 14 9 19 7 21 6 26 5 26 3 21 2 11 2 26 4 13v19l-7 11-10 9-17 8-13 4-28 5h-17l-17-3-10-1-21-9-11-8-7-8-4-11 1-9 6-27 7-43 8-37 7-25 10-25 9-17 6-10-2-5-4-8-2-7 1-9 6-14 9-10 11-7v-51l3-29 2-14 6-22 8-19 6-11 7-9-1-4 7-4 10-8 14-8 14-6 31-9 30-7 25-5 37-8 13-3 36-6 31-5 10-2 47-5 48-4 41-3 31-2 4-9 7-6 7-3z" fill="#E5C06D"/>
<path transform="translate(1192,558)" d="m0 0 5 1 10 4 11 5 10 6 3 4 3 5 4 2 5 9v9l-3 5-6 4-6 5-3 3h-2v2h-2v2l-5 4-1 2h-2l-2 6-9 10-13 11-11 7-12 12-11 9-14 11-7 6h-2v2l-6 5-5 5-8 7-5 3-4 3h-2v2l-9 6-8 7h-2v2l-14 11-5 5-10 8-3 1v2l-4 3h-2v2h-2v2l-5 4h-2v2h-2v2l-5 2v2l-10 8-10 10-9 6-3 4h-2l-1 3-5 4h-2v2h-2l-2 5-6 8h-2l-1 3-4 3-6 1-9-16-8-11-11-13-5-6-2-1v-2l-4-2-7-7-9-7-7-6-12-8v-2l-5-2-2-2 1-5 3-1 2-4 5-3h2v-2l6-2v-2l31-18 5-4 5-3h2v-2h3v-2l9-7 11-6 8-7h2v-2l6-4 8-5 9-6h2v-2h2v-2l13-9 5-4h2v-2l6-3 8-6h3v-2l3-2h3v-2l8-5h2l1-2 10-6 9-7 11-6 10-7 12-7 10-7 12-8h3v-2l16-8 8-5 7-5 15-7z" fill="#FB7FBA"/>
<path transform="translate(1289,596)" d="m0 0 4 1 7 20 2 11v25l-3 22-5 8-13 10-16 8-7 2-10 1-11 9-13 11-10 8-14 12-22 18-14 12-14 11-15 13-11 9-17 14-13 11-10 8-14 12-14 11-10 9-9 7-14 12-11 9-13 11-10 8-13 10-14 9-8 4-17 3-16-2h-10l-5 4-3 1h-8l-9-5-11-9-12-11-9-9-7-8-11-15-12-20-7-16-6-19-1-10h-2l-1-12v-11l4-16 8-16 11-7 13-5h17l12 6v2l-12 4-11 8h-2l-2 5 7-1h12l9 3 8 2 12 7 10 8 7 8 11 13 8 11h4v-7l-1-7 2-2 8 1 11 12 8 13 10 21 5 16 1 4 8-4 5-5h2v-2l8-7 8-6h2v-2l10-7 3-3 5-2v-2l4-1v-2l8-7 5-4h2v-2l11-9 6-5h2v-2l8-6 4-2v-2l13-10h2v-2l20-16 11-9 10-8h2l1-3 9-7 3-1v-2h2v-2h3v-2l10-8 13-11 5-4h2v-2l5-2v-2l11-8 11-10 6-5h2l2-4 9-7 11-10 5-5 3-1v-2l10-7 8-7h2v-2l5-3 8-8 5-9 3-9 1-8z" fill="#B24D7F"/>
<path transform="translate(1250,438)" d="m0 0h11v2l10 1 27 6 14 6 9 7 6 8 2 4v7l-4 13-7 13-1 3 12 17 11 18 8 16 5 13 3 13 3 24v3l-6 5-3 10-6 9-7 9-10 10-14 11-8 8-7 6h-2l2-5 3-23v-24l-3-14-6-17-8-17-10-16-11-13-8-8v-2l-4-1-2-1h-33l-27-2-19-5-19-7-6 1-10 5-9 6h-2l1-5 11-12 3-3-1-5-4-10-1-8 2-8 6-10 10-10 17-10 20-8 23-6 20-3z" fill="#5748CC"/>
<path transform="translate(1530,380)" d="m0 0h9l5 8 1 5h2l4 15 1 15-2 13-5 13-7 11-11 12-14 12-13 11-9 7-14 12-14 11-14 12-11 9-14 12-13 11-14 11-13 11-11 9-12 10-3-1-3-24-5-19-8-18-10-17-11-16-5-7 2-5 8-16 2-8v-7l-6-10-7-6-9-5 3-1 11 7 12 13v2l5 2 9 5 4 5 4 8 3 2v3l8-1 16-6 12-6 1-3 14-9h2v-2h2v-2l6-4 5-5 20-16 6-5h2v-2l9-7h2v-2l10-8 12-10 11-7 8-5 16-8 7-6z" fill="#D4659E"/>
<path transform="translate(1289,596)" d="m0 0 4 1 7 20 2 11v25l-3 22-5 8-13 10-16 8-7 2-10 1-11 9-13 11-10 8-14 12-22 18-14 12-14 11-15 13-11 9-17 14-13 11-10 8-14 12-14 11-10 9-9 7-14 12-11 9-13 11-10 8-3 2-6 2-7 1-2-1-1-8-7-2h-7l-26-4-9-2-6-3 3-5 9-7 6-9 2-6 3-10 2-26v-5l4-2 2-5 6 2 9 14 10 21 5 16 1 4 8-4 5-5h2v-2l8-7 8-6h2v-2l10-7 3-3 5-2v-2l4-1v-2l8-7 5-4h2v-2l11-9 6-5h2v-2l8-6 4-2v-2l13-10h2v-2l20-16 11-9 10-8h2l1-3 9-7 3-1v-2h2v-2h3v-2l10-8 13-11 5-4h2v-2l5-2v-2l11-8 11-10 6-5h2l2-4 9-7 11-10 5-5 3-1v-2l10-7 8-7h2v-2l5-3 8-8 5-9 3-9 1-8z" fill="#A1477A"/>
<path transform="translate(167,504)" d="m0 0h5l8 7 6 10 3 12-1 10-4 11-3 5 8 14 9 19 7 21 6 26 5 26 3 21 2 11 2 26 4 13v19l-7 11-10 9-12 4-7 3-11-1-12-4-6-4-7-11-2-10v-8l-2-5 1-23v-13l-2-17v-19l2-30 2-18 1-19v-14l-2-6-7-3-13-5-7-5-1-7 4-4 12-4 6-4 8-9 4-8 5-15 2-11z" fill="#D0B06D"/>
<path transform="translate(287,435)" d="m0 0h2l5 6 4 3v2l4 2 4 9-2 5-4 5-2 12-1 18 5 25 2 11v10l-1 16v28l-2 9-3 10-8 16-3 3-3 1-3 3-4 9v30l2 22 1 3v26l-3 9h-5l-6-4-12-14-8-14-10-25-3-9v-50l1-31 3-40 3-10 7-17 7-11 11-12 7-8 12-12 2-34z" fill="#4638A5"/>
<path transform="translate(621,236)" d="m0 0h18l18 2 17 5 5 4 2 4-1 9-5 6-6 3-9 2h-37l-5-1v-2h-5v2l-21 3-40 4-27 2-15 2-30 3-24 2-42 5-51 9-10 2h-10v2l-25 5-9 1-6 2-18 3-14 4-36 8-24 4-11 4-8 6-5 4-8 10-7 8-8 16-7 8-8 11h-2l-4 25-1 13v13l-1 2v14l2 20v11l-2 13-2 7-2 2-9 2-3-1-1 3-8 8-2 12-2 1-1-8 3-10 6-12 7-7 11-7v-51l3-29 2-14 6-22 8-19 6-11 7-9-1-4 7-4 10-8 14-8 14-6 31-9 30-7 25-5 37-8 13-3 36-6 31-5 10-2 47-5 48-4 41-3 31-2 4-9 7-6 7-3z" fill="#EFD1A2"/>
<path transform="translate(1313,508)" d="m0 0h4l12 17 11 18 8 16 5 13 3 13 3 24v3l-6 5-3 10-6 9-7 9-10 10-14 11-8 8-7 6h-2l2-5 3-23v-24l-3-14-6-17-8-17-10-16-11-13-8-8-2-3 1-5 34-13 21-11z" fill="#95C2B0"/>
<path transform="translate(40,197)" d="m0 0 6 1 11 8 17 13 16 12 13 10 10 8 18 14 15 12 13 10 14 11 16 12 9 6 6 3v2l-15 8-13 10-4 3-5-1-11-10-17-13-32-26-17-13-17-14-13-10-16-13-7-5-1-2 1-29 2-6z" fill="#5949CC"/>
<path transform="translate(1540,427)" d="m0 0h5l3 3v8l-7 18-9 11-13 12-11 9-12 10-11 9-14 12-10 8-17 14-14 12-11 9-13 11-10 8-17 14-14 12-4 3-3-1-3-24-1-9 1 3 3-1 3-5 9-7 7-7 5-4h2v-2l10-8 5-3 5-5 5-2v-2l6-5h2v-2l9-6 8-7h2v-2l5-4h2v-2l5-4h2v-2l8-6 8-7 4-1v-2l11-8 11-9 10-8 7-5h2l1-3 9-7 10-9 5-3z" fill="#A3487B"/>
<path transform="translate(174,508)" d="m0 0 5 2 7 11 3 12-1 10-4 11-3 5 8 14 9 19 7 21 6 26 5 26 3 21 2 11 2 26 4 13v19l-6 9-3 2h-8l-3-3-8-21-5-27-5-24-2-14-3-16-4-29-5-30-9-27-12-2-4-4 1-5 5-4 9-14 4-9 4-13v-10z" fill="#AB9485"/>
<path transform="translate(810,830)" d="m0 0 3 3 4 9 5 5 4 5v2l9 2 8 4 5 4 11 4 11 2 7 1h10l7 2 3 9 7 5 7 4 1 7-9 5v4l6 1 4 3 10 5 4 3 4 2 5 5 3 4-1 2 5 2 1 1h12l5-1 6-2 5-3 2 1-10 7-10 5-17 3-16-2h-10l-5 4-3 1h-8l-9-5-11-9-12-11-9-9-7-8-11-15-12-20-7-16-6-19z" fill="#D4669E"/>
<path transform="translate(1222,453)" d="m0 0 10 1 12 5 2 3h14l11 4 1 7v2l8-5 12 1 15 4 5 3-1 4-8 6-19 12-15 9-16 8-10-2-5-2-1-5 16-13 10-6 8-4 1-4-10 3-21 1-2 1 1 5-4 4-4 2-23 1h-16l-7-3v-6h-22l-6-3-1-3 2-10 4-5 2-1h20l4-10 4-3h23z" fill="#E8CAA1"/>
<path transform="translate(1289,596)" d="m0 0 4 1 7 20 1 7-2 1-3 9-4 9-5 4-5 5-3 1v2l-7 5h-2l-1 3-3 3-5 3-7 6-4 3h-2v2l-8 6-4 2v2h-2v2l-8 7-4 4h-2v2l-11 8-4 2v2l-6 4-6 5h-2v2l-20 16h-2v2l-16 14-10 8h-2l-1 3-8 6h-2v2l-5 2v2l-5 4h-2l-1 3-11 8h-2v2l-6 4h-2v2l-13 10-10 9-4 3h-2l-2 4-9 7h-2v2l-10 8h-2v2l-13 9-12 8-14 11-5 4h-2l-2 4-7 6-3 5-3 2h-3l-3-16 1-2 1 4 8-4 5-5h2v-2l8-7 8-6h2v-2l10-7 3-3 5-2v-2l4-1v-2l8-7 5-4h2v-2l11-9 6-5h2v-2l8-6 4-2v-2l13-10h2v-2l20-16 11-9 10-8h2l1-3 9-7 3-1v-2h2v-2h3v-2l10-8 13-11 5-4h2v-2l5-2v-2l11-8 11-10 6-5h2l2-4 9-7 11-10 5-5 3-1v-2l10-7 8-7h2v-2l5-3 8-8 5-9 3-9 1-8z" fill="#B24D7F"/>
<path transform="translate(1250,438)" d="m0 0h11v2l10 1 27 6 14 6 9 7 6 8 2 4v7l-4 13-3 4v-3h-2v2h-2l-2 4-5 5-11 9-15 7-10 3-7 3-19 2h-11l-4-1-2-3 1-5 4-2h18l10-5 4-4 17-10 17-11 5-2 1-3 2-1v-3l-11-4-14-3h-6l-6 4h-2l-1-7v-2l-11-3h-18l3-2-10-5-7-2-20 1h-15l-4 4-3 8-4 1h-17l-5 3 1-6-9 3h-3l10-7 16-8 16-6 25-6 15-2z" fill="#7B6AFB"/>
<path transform="translate(1346,557)" d="m0 0 3 4 5 15 3 17 2 16v3l-6 5-3 10-6 9-7 9-10 10-14 11-8 8-7 6h-2l2-5 3-23v-24l-3-14-6-17-2-7 5 5 1 2 9 1h10l9-7 7-4 6-7 6-13z" fill="#6F9694"/>
<path transform="translate(843,759)" d="m0 0h17l12 6v2l-12 4-11 8h-2l-2 5 7-1h12l9 3 8 2 12 7 7 6 3 5 4 5-1 4-1 1-16-1-7-2h-7l-14 3-11 2-5 2-9-1-2-4h-2l-2-10-4 5-4 3-9-2-2-2-1-6 2-14 2-5 2-8 4-6 14-8z" fill="#8D315C"/>
<path transform="translate(445,267)" d="m0 0h9l-1 3-15 3-25 3-31 5-25 5-19 4-13 4h-5v2l-11 3-9 3-23 5-15 4-17 4-17 7-20 7-15 8-8 8-7 9-4 7-5 7-7 14-7 7-6 9h-2l-4 25-1 13v13l-1 2v14l2 20v11l-2 13-2 7-2 2-9 2-3-1-1 3-8 8-2 12-2 1-1-8 3-10 6-12 7-7 11-7v-51l3-29 2-14 6-22 8-19 6-11 7-9-1-4 7-4 10-8 14-8 14-6 31-9 30-7 25-5 37-8 13-3 36-6 31-5 10-2z" fill="#FADAA1"/>
<path transform="translate(1540,427)" d="m0 0h5l3 3v8l-7 18-4 4 2-9h-6l-10 5-9 6-7 7-8 6-5 3-11 10-6 5h-2l-2 4-3 1v2l-16 11-3 3h-2v2h-2v2l-5 2v2l-11 8-7 6h-2l-1 3h-2v2l-15 11-3 1-1 3-6 4-10 7-9 9-6 4h-2l-1 3h-2v2l-5 5-2 1-3-10v-5l1 3 3-1 3-5 9-7 7-7 5-4h2v-2l10-8 5-3 5-5 5-2v-2l6-5h2v-2l9-6 8-7h2v-2l5-4h2v-2l5-4h2v-2l8-6 8-7 4-1v-2l11-8 11-9 10-8 7-5h2l1-3 9-7 10-9 5-3z" fill="#B24D7F"/>
<path transform="translate(621,236)" d="m0 0h18l18 2 17 5 5 4 2 4-1 9-5 6-6 3-9 2h-37l-5-1v-2l-6-1-6-4h-7l-10-2h-8l-6 2h-24l-19-1 1-2 13-1 2-1 46-3 4-9 7-6 7-3z" fill="#FBDCA0"/>
<path transform="translate(552,276)" d="m0 0h8v1l-36 6-32 7-48 8-145 22-17 1-12 3-28 4h-8l1-2 48-11 9-2 16-3 1-1 19-3 9-2h6v-2l15-2 50-9 31-4 26-3 36-3 20-2 15-2z" fill="#5647CB"/>
<path transform="translate(241,599)" d="m0 0 7 1 4 9 3 11 4 31 1 13 2 9 2 22v8l-1 7-4 2-7-5-8-16-8-20-3-9v-50l1-6 5-5z" fill="#2F266D"/>
<path transform="translate(1222,453)" d="m0 0 10 1 12 5 2 3h7l-3 3h-8l-7-1v-3h3l-4-4-4-1h-10l-2 1h-16v9l4 2 7 2 10 1 2 1 2 10 2 5h6v-4l2-1h23l2 2-21 1-2 1 1 5-4 4-4 2-23 1h-16l-7-3v-6h-22l-6-3-1-3 2-10 4-5 2-1h20l4-10 4-3h23z" fill="#E4BF6D"/>
<path transform="translate(1147,524)" d="m0 0 7 1 19 7 16 4 27 2h33l6 3 5 7-13-2h-33l-18-1-26-3-16 2-12 4-16 8-21 9h-4l-1 2-4 3-6 6-6 2-9 6-9 8-14 7-7 8-9 2v2l-3 1 1-5 16-12 18-13 12-9 19-14 12-9 10-8 2-6 4-1 13-8z" fill="#AF5896"/>
<path transform="translate(814,780)" d="m0 0 1 4-3 9-1 11 2 6 9 2 8-8 2 5v6h2l2 3 9 1 8-3 18-3 4-1h7l7 2 16 1 1-4-6-7 1-2 12 12 8 10 2 8-3 1-35-3-14 1-14 7-1 1-16-1-8-4-15-2-5-5-4-1-1-12v-11l4-16z" fill="#A04679"/>
<path transform="translate(985,645)" d="m0 0 1 3-7 6-7 8-5 5h-2l-2 4-5 3h-2l-1 3h-2v2l-20 14-8 5h-2v2l-11 7h-2v2l-10 7-16 10-16 12-11 7-5 4-2 7 11 1 10 4 13 7 2 3-6 4h-10v2h-2l2 6 6 3-3 1-9-3h-12l-8 1 2-4 5-5 11-7 10-2-3-3-9-4h-17l-13 5-9 5 2-4 12-12 8-7 13-10 17-12 14-10 19-14 17-12 16-13 16-11h2v-3l10-6 14-10z" fill="#AF5695"/>
<path transform="translate(957,845)" d="m0 0 3 1 4 5 5 10 4 16 2 9-1 9-3 4-9 3-14 2-16-1-5-2-1-4 7-8 6-10 4-10 2-12 2-3h2l2-5z" fill="#8D315C"/>
<path transform="translate(183,522)" d="m0 0 3 3 1 16-3 13-3 5 8 14 9 19 7 21 6 26 3 27v8l-4-2-4-16-9-23-8-27-10-31-2-5-5 1h-9v-6l7-11 6-12 5-13z" fill="#A04979"/>
<path transform="translate(1220,455)" d="m0 0h10l7 3 1 3-3 2 7 1h8l3-2h7l9 3 1 2v6l-5 8-5 2h-25l1 4-5 1-4-4-2-4v-8l-17-2-5-2-2-2v-10h17z" fill="#ECD2A3"/>
<path transform="translate(1313,508)" d="m0 0h4l10 14-1 4-5 3-15 4-10 3-25 7-6 3v6l-7-6-5-6 1-5 34-13 21-11z" fill="#6E9594"/>
<path transform="translate(958,634)" d="m0 0 2 3-1 13-2 15-11 7-14 11-13 10-17 12-19 14-7 5-7 3-3 1 1-4 6-7 15-9 5-4h2l1-3 10-7 12-10h2v-2l8-7 10-14 8-11 9-14z" fill="#2F2570"/>
<path transform="translate(537,273)" d="m0 0h17l17 1v1l-19 2-27 2-15 2-30 3-24 2-42 5-40 7h-4l-1-3 3-2 20-4 25-4 37-5 27-3 39-3z" fill="#CEAF6F"/>
<path transform="translate(1222,453)" d="m0 0 10 1 12 5 2 3h7l-3 3h-8l-7-1v-3h3l-4-4-4-1h-10l-2 1h-9l-17-1-1 9 1 4-2 1h-20l1 8 1 4 3 2 13-1 6 6 1 5 2 1 10 1v-2l12-1 5 1h8l4-3-1-8 2-1h23l2 2-21 1-2 1 1 5-4 4-4 2-23 1h-16l-7-3v-6h-22l-6-3-1-3 2-10 4-5 2-1h20l4-10 4-3h23z" fill="#A89385"/>
<path transform="translate(1320,397)" d="m0 0h4l-2 4-4 6h-2v2l-2 1-2 6-5 5-4 5-5 3h-2l-1 3h-2v2l-7 5 4 4 16 6-3 1-13-4-29-6v-2l8-4 17-12 18-13 10-8z" fill="#D567A0"/>
<path transform="translate(157,416)" d="m0 0h2l-1 24v59h2l-1 4-3 2-7-1-2-5v-37l3-29 2-10z" fill="#CFB06D"/>
<path transform="translate(183,522)" d="m0 0 3 3 1 16-3 13-3 5 8 14 9 19 3 8v7l-4-3-3-9-8-15-4-9-2-1h-7l-1 1h-9v-6l7-11 6-12 5-13z" fill="#8E365E"/>
<path transform="translate(1300,651)" d="m0 0 2 2-3 22-5 8-13 10-16 8-6 1-3-1 2-5 7-7 16-12 7-8 7-9h2z" fill="#312770"/>
<path transform="translate(859,735)" d="m0 0 2 1-15 13-9 8-1 2 7-2h18l10 4 13 7 2 3-6 4h-10v2h-2l2 6 6 3-3 1-9-3h-12l-8 1 2-4 5-5 11-7 10-2-3-3-9-4h-17l-13 5-9 5 2-4 12-12 8-7 13-10z" fill="#A04679"/>
<path transform="translate(286,468)" d="m0 0 1 2-2 17-4 8-6 8-11 8-11 3-1-5v-3l8-10 15-16 8-7z" fill="#5E50CF"/>
<path transform="translate(214,333)" d="m0 0h3v7l-5 14-2 10h-2v2l-9-2-12-10 1-4 8-7 7-4h2v-2z" fill="#4739A6"/>
<path transform="translate(1221,458)" d="m0 0 10 1 1 5 6 1h22l2 1v6l-5 3-5 2-14 2h-6l-4-4-3-5-9-3-2-2 1-4z" fill="#FCDEA1"/>
<path transform="translate(1269,480)" d="m0 0 3 1 1 4-7 4h-3l-1 2-10 6-14 11-2 4-6-5-3-5 3-3-7-1v-1l9-1 5-3h2l-1-8 3-1 21-1z" fill="#7A69FC"/>
<path transform="translate(1172,469)" d="m0 0 18 1-3 2v5l15 8 4 3 15 2 6 2 9-1-4 4h-8l-9-1h-8v2h-10l-3-2-2-6-4-4h-7l-6 1-4-3-2-10z" fill="#D0B06D"/>
<path transform="translate(1286,473)" d="m0 0 8 1 10 4-1 4-9 5-10 7-19 10-5-1 1-5 11-10 7-4 4-8z" fill="#FDDFA1"/>
<path transform="translate(1298,645)" d="m0 0h3v6l-4 9-5 5-8 10h-2l-1 3-12 9-10 9-3 5-4 1-2-2 1-8 5-5 6-5h2v-2l11-7 8-6 10-13z" fill="#8D315C"/>
<path transform="translate(138,488)" d="m0 0h2l1 12 1 1-1 8-2 7-2 2-9 2-3-1-1 3-8 8-2 12-2 1-1-8 3-10 6-12 7-7 11-7z" fill="#FDDFA1"/>
<path transform="translate(1147,524)" d="m0 0 7 1 19 7v1l-7 1h-11l-9 3-5 4-3 1h-7l-6-3 2-4 13-8z" fill="#A04578"/>
<path transform="translate(549,275)" d="m0 0h11v1l-35 3-15 2-30 3-24 2-35 4h-6l4-2 24-4 20-3 49-4 11-1z" fill="#A88883"/>
<path transform="translate(80,711)" d="m0 0h5l1 1 2 13v12l-4 8h-2l-2 4h-1l-2-16-4-9 2-4 3-3z" fill="#D0B06D"/>
<path transform="translate(1091,567)" d="m0 0v3l-5 5-8 5-7 8-7 5-12 6-7 8-9 2v2l-3 1 1-5 16-12 18-13 12-9 7-5z" fill="#B7598B"/>
<path transform="translate(158,417)" d="m0 0h1l-1 23v57l1 3-3 2h-3l-2-9 4-62 2-13z" fill="#AA9385"/>
<path transform="translate(948,553)" d="m0 0 3 1 7 15 2 11-5 2-8-2-5-5 2-10 3-5v-6z" fill="#2F256D"/>
<path transform="translate(1289,596)" d="m0 0 4 1 7 20 1 7h-4l-3 7-6 2-7 5-2-1 5-6 4-9 2-6 1-8z" fill="#AE5696"/>
<path transform="translate(343,302)" d="m0 0h10l-4 2-13 4-8 3-26 5-12 2-13 1-9 2-4-1 21-6 23-4 1-1 19-3 9-2h6z" fill="#493AA1"/>
<path transform="translate(1144,479)" d="m0 0h7l1 4 2 4 1 5-5 3-4 1v2l-8-1-2-6 1-5 3-5z" fill="#4638A5"/>
<path transform="translate(537,273)" d="m0 0h17l17 1v1l-48 2-20 2-40 3h-7l-2-2 27-3 39-3z" fill="#D5B46D"/>
<path transform="translate(959,661)" d="m0 0h4l-2 4-6 4-12 11-10 7-9 5-17 12-12 8-2-1 17-13 17-12 16-13 12-8h2v-3z" fill="#9C4172"/>
<path transform="translate(879,766)" d="m0 0 5 2 2 3-6 4h-10v2h-2l2 6 6 3-3 1-9-3v-2l-8-1-1-4 5-4 2-1h7v-2l10-3z" fill="#B14C7E"/>
<path transform="translate(135,582)" d="m0 0 5 1 2 1 1 6-4 11-4 5-5-1v-9l2-11z" fill="#FDDFA1"/>
<path transform="translate(1139,517)" d="m0 0 10 2 4 4-15 6-11 7-3 1 1-5 11-12z" fill="#4C45A3"/>
<path transform="translate(222,328)" d="m0 0h5l-3 2-12 5-4 2h-3v2l-10 6-7 6-2 3-2-2 6-10 8-7 9-4z" fill="#DBB870"/>
<path transform="translate(1269,466)" d="m0 0h2l1 7v2l6-2-3 5 1 6h-2v2l-11 7-14 9h-2v2l-7 5-3 3 1-5 14-11 11-7 8-4 1-4-10 2 5-6 2-4z" fill="#B86F9E"/>
<path transform="translate(183,522)" d="m0 0 3 3 1 16-3-4-3 3-7 14-7 9-1 7h6v1h-9v-6l7-11 6-12 5-13z" fill="#A04679"/>
<path transform="translate(678,262)" d="m0 0v3l-5 5-9 1v2l-9 2h-16l-17-2-4-2v-1h42l11-3 6-4z" fill="#553590"/>
<path transform="translate(1222,453)" d="m0 0 10 1 12 5 2 3h7l-3 3h-8l-7-1v-3h3l-4-4-4-1h-10l-2 1h-9l-12-1-7 1 3-3h23z" fill="#D166A1"/>
<path transform="translate(552,276)" d="m0 0h8v1l-26 4-41 4-6-1v-1l23-3 26-3z" fill="#4C389E"/>
<path transform="translate(277,318)" d="m0 0h6l-1 3-12 3-28 4h-8l1-2 27-6 11-1z" fill="#5041BC"/>
<path transform="translate(1065,584)" d="m0 0 2 1-8 7-2 4-7 5-5 6-9 2v2l-3 1 1-5 16-12z" fill="#BE618E"/>
<path transform="translate(136,521)" d="m0 0h2v2l4 1 3 3-1 7-2 3-7-1-2-3v-8z" fill="#FDDFA1"/>
<path transform="translate(205,337)" d="m0 0h4l1 7-4 11-3 1-3-2 1-14 4-1z" fill="#2F246F"/>
<path transform="translate(1280,470)" d="m0 0 12 1 2 3h-8l-4 5-3 6-5 3-2-1 3-4-1-5z" fill="#E3C9A4"/>
<path transform="translate(139,461)" d="m0 0 2 1 2 23v11l-1 5-2-1v-12h-2v-26z" fill="#F2D5A4"/>
<path transform="translate(238,537)" d="m0 0h1v22l-1 15-3 19h-1v-12l3-40z" fill="#6359D5"/>
<path transform="translate(1191,537)" d="m0 0 34 1h24l3 3-44-1-17-2z" fill="#A04679"/>
<path transform="translate(1329,472)" d="m0 0h1v9l-7 25-2 8-4-4-1-4 6-10 4-9z" fill="#AE5696"/>
<path transform="translate(142,419)" d="m0 0 1 4-1 13v13l-1 2-1 10-2 1v-14l2-22z" fill="#FBDDA1"/>
<path transform="translate(537,273)" d="m0 0h17l17 1v1l-22 1h-18l-11-1v-1z" fill="#D6B06F"/>
<path transform="translate(215,331)" d="m0 0 3 1-10 5h-3v2l-10 6-7 6-2 3-2-2 6-7 13-9z" fill="#A78482"/>
<path transform="translate(1269,466)" d="m0 0h2l1 7v2l6-2-4 7-2 4v-3l-10 2 5-6 2-4z" fill="#BB5B98"/>
<path transform="translate(303,311)" d="m0 0h5l-4 2-16 4-20 4-4-1 21-6z" fill="#4C2E6E"/>
<path transform="translate(842,898)" d="m0 0 4 2 10 10 6 8-2 2-14-15z" fill="#FA96C0"/>
<path transform="translate(1208,472)" d="m0 0h13l2 3-6 3-8-1z" fill="#D0B06D"/>
<path transform="translate(1235,457)" d="m0 0 7 1 4 4h7l-3 3h-8l-7-1v-3h3z" fill="#B9849C"/>
<path transform="translate(596,251)" d="m0 0 2 2 1 5h-36v-1l31-2z" fill="#CCA586"/>
<path transform="translate(204,330)" d="m0 0m-2 1h2v2l-10 6-7 6-8 10-2 1 2-4 8-10 9-8z" fill="#F2D5A4"/>
<path transform="translate(192,322)" d="m0 0h2v2l-11 7-3-1-1-4 4-3z" fill="#4A3CAD"/>
<path transform="translate(1133,523)" d="m0 0 1 4v2l2 1-10 7h-2l1-5z" fill="#606CA1"/>
<path transform="translate(229,386)" d="m0 0 5 2 15 13 10 7 1 3-4-2-16-13-11-9z" fill="#8D7BE4"/>
<path transform="translate(919,692)" d="m0 0m-2 1 2 1-5 5-19 13-2-1 17-13z" fill="#9E4477"/>
<path transform="translate(1237,482)" d="m0 0h23l2 2-21 1-5 2-1-4z" fill="#D3829F"/>
<path transform="translate(1138,521)" d="m0 0 4 1-2 6-7 2 1-7z" fill="#2E246F"/>
<path transform="translate(208,332)" d="m0 0 4 1-14 7-10 8v-3l13-10z" fill="#D0B06D"/>
<path transform="translate(249,511)" d="m0 0 2 4-2 6-6 5 3-10z" fill="#6153D1"/>
<path transform="translate(463,265)" d="m0 0h10l-2 2-14 2-4-1 1-2z" fill="#F5C8A3"/>
<path transform="translate(173,369)" d="m0 0 1 4-7 15h-2l3-10z" fill="#C2AC91"/>
<path transform="translate(486,263)" d="m0 0h13l-2 2-14 1-9-1v-1z" fill="#ECBBA1"/>
<path transform="translate(1091,567)" d="m0 0v3l-5 5-6 2 3-5 4-4z" fill="#B45283"/>
<path transform="translate(1290,682)" d="m0 0 4 1-13 10-4 1 5-5z" fill="#759E99"/>
<path transform="translate(1233,381)" d="m0 0h1l-1 9-5-1 1-5z" fill="#4638A5"/>
<path transform="translate(303,311)" d="m0 0h5l-4 2-16 4-3-1 7-3z" fill="#34256F"/>
<path transform="translate(186,529)" d="m0 0h2l1 9-3 12-1-4 1-11z" fill="#949F93"/>
<path transform="translate(855,757)" d="m0 0h6l10 4v3l-6-2-5-2v-2h-5z" fill="#A9497C"/>
<path transform="translate(245,324)" d="m0 0 4 1v2l-7 1h-8l1-2z" fill="#5A4BD0"/>
<path transform="translate(179,359)" d="m0 0 2 1-6 11-2-2 1-5z" fill="#DCBE82"/>
<path transform="translate(179,558)" d="m0 0 2 1 1 5-6 2-1-4z" fill="#2F266D"/>
<path transform="translate(194,342)" d="m0 0 2 2-8 7-2 3-2-2 6-7z" fill="#96938A"/>
<path transform="translate(1192,456)" d="m0 0 3 1-1 1-1 11-3-4v-6z" fill="#CBAE70"/>
<path transform="translate(190,348)" d="m0 0v3l-1 3 4-1 2 5 1 2-4-2-5-4 1-4z" fill="#5F54D0"/>
<path transform="translate(678,262)" d="m0 0v3l-5 5-6 1-3-2 9-3z" fill="#4E307B"/>
<path transform="translate(300,755)" d="m0 0 5 2 10 8 1 2-4-2-12-9z" fill="#7D75F2"/>
<path transform="translate(1273,480)" d="m0 0h2l1 4h-2v2l-9 6h-2v-3l8-4h2z" fill="#CD6CA2"/>
<path transform="translate(1142,526)" d="m0 0 2 1-9 6-4 2-3-1z" fill="#8D315C"/>
<path transform="translate(1237,486)" d="m0 0h2l1 5-4 4-4 1 4-5z" fill="#B68B88"/>
<path transform="translate(1210,473)" d="m0 0h9v3l-5 1-4-2z" fill="#AB9485"/>
<path transform="translate(1540,427)" d="m0 0h5l3 3v8l-2-3-2-6z" fill="#AE5696"/>
<path transform="translate(372,293)" d="m0 0h4v2l2 1-4 2h-4l-1-3z" fill="#DABA74"/>
<path transform="translate(1298,669)" d="m0 0h1v6l-4 7h-5l6-7z" fill="#483EA3"/>
<path transform="translate(943,543)" d="m0 0h2l5 9-1 2-3-3-3-5z" fill="#5B4D7C"/>
<path transform="translate(1142,537)" d="m0 0 2 1-3 3-3 1h-7l1-2z" fill="#B24D7F"/>
<path transform="translate(1159,473)" d="m0 0 2 3-1 11-3-2z" fill="#738D91"/>
<path transform="translate(907,700)" d="m0 0m-1 1m-1 1m-2 1h2l-1 3-9 6-2-1z" fill="#A04679"/>
<path transform="translate(1170,455)" d="m0 0 7 1v2h-2v2l-5-1-1-2z" fill="#5D4ACC"/>
<path transform="translate(141,436)" d="m0 0h1v13l-2 2-1-9z" fill="#F2D5A4"/>
<path transform="translate(329,303)" d="m0 0 8 1-4 2-9 1v-3z" fill="#CAA179"/>
</svg>
